<?xml version="1.0" encoding="UTF-8"?><svg id="Layer_2" xmlns="http://www.w3.org/2000/svg" viewBox="0 0 914.55 294.33"><defs><style>.cls-1{fill:none;}.cls-1,.cls-2{stroke-width:0px;}.cls-2{fill:#809ba6;}</style></defs><g id="Layer_1-2"><path class="cls-1" d="M424.63,170.01v22.82s0,0,0,0v6.49s0,0,0,0v23.83h0v6.11h0v27.32s0,.02,0,.04c0,.31.04.61.09.9.04.19.1.38.16.56.03.09.05.19.09.28.09.24.21.47.34.7.01.02.02.04.03.06.14.24.31.47.49.68,0,0,0,0,0,0,.92,1.1,2.29,1.82,3.84,1.82h1.9s0,0,0,0h36.9s0,0,0,0h6.47s0,0,0,0h12.32c2.09,0,4.12-.22,6.11-.56,0,0,.01.01.02.02,2.16-.38,4.25-.95,6.25-1.7,0,0-.02-.02-.03-.03,9.18-3.44,16.54-10.59,20.25-19.62,0-.02.01-.03.02-.05.32-.78.61-1.57.87-2.37.02-.05.04-.1.05-.16.25-.78.47-1.58.67-2.39.03-.13.06-.27.09-.41.17-.74.32-1.5.45-2.26.01-.08.03-.15.04-.23.13-.8.22-1.61.29-2.42.02-.19.03-.38.04-.57.06-.82.1-1.64.1-2.48,0,0,0-.01,0-.02V37.75c0-2.78-2.25-5.03-5.03-5.03h-57.59c-2.43,0-4.81.25-7.1.72-16.06,3.29-28.13,17.49-28.13,34.52v95.05h0v7.01s0,0,0,0Z"/><path class="cls-2" d="M424.63,199.33s0,0,0,0c-2.1.85-4.18,1.72-6.24,2.59l-.88.37c-2.24.95-4.5,2.14-6.68,3.29-2.46,1.3-4.94,2.61-7.54,3.69-6.31,2.61-10.41,7.06-11.38,12.24v4.75c.64,3.56,2.67,7.11,5.94,10.18.7-.39,1.39-.76,2.03-1.11,2.35-1.26,4.75-2.55,6.54-4.17,5.59-5.06,11.78-6.95,18.21-8h0v-23.83Z"/><path class="cls-2" d="M425.33,259.11s-.02-.04-.03-.06c-.13-.22-.24-.45-.34-.7-.04-.09-.06-.19-.09-.28-.06-.19-.12-.37-.16-.56-.06-.29-.09-.59-.09-.9,0-.01,0-.02,0-.04v-27.32h0c-5.13.94-9.98,2.58-14.17,6.36-2.35,2.13-5.08,3.6-7.72,5.01-1.19.64-2.26,1.22-3.27,1.82-.48.28-1.01.43-1.55.43-.12,0-.24,0-.35-.02-.12.01-.24.02-.36.02-.7,0-1.38-.25-1.92-.7-1.25-1.04-2.35-2.15-3.37-3.29v47.11c2.8,2.89,6.26,6.4,10.48,8.05l-.05.25h8.35l-.05-.19c6.84-3.58,9.2-10.78,11.7-18.42l.21-.64c.82-2.48,1.28-5.24,1.73-7.92.34-2,.68-4,1.16-5.99.12-.48.25-.92.37-1.37,0,0,0,0,0,0-.18-.21-.34-.44-.49-.68Z"/><path class="cls-2" d="M424.63,170.01s0,0,0,0c-1.01.65-2.01,1.33-3.01,2.06-7.14,5.23-15.12,10.07-25.05,10.07-1.05,0-2.13-.05-3.21-.16-.51-.05-.96-.15-1.45-.22v27.86c2.43-2.39,5.46-4.42,9.07-5.92,2.34-.97,4.68-2.21,6.94-3.4,2.34-1.24,4.73-2.5,7.25-3.57l.88-.37c2.81-1.19,5.68-2.39,8.58-3.53,0,0,0,0,0,0v-22.82Z"/><path class="cls-2" d="M550.17,0h-90.31c-4.69,0-9.27.48-13.69,1.38-30.96,6.34-54.26,33.73-54.26,66.57v107.75c.65.11,1.32.22,2.04.29.87.09,1.75.13,2.6.13,7.76,0,14.21-3.56,21.51-8.91,2.08-1.52,4.19-2.88,6.47-4.16l.1-.05h0v-95.05c0-17.03,12.08-31.23,28.13-34.52,2.29-.47,4.67-.72,7.1-.72h57.59c2.78,0,5.03,2.25,5.03,5.03v188.63s0,.01,0,.02c0,.83-.04,1.66-.1,2.48-.01.19-.03.38-.04.57-.07.81-.16,1.62-.29,2.42-.01.08-.03.15-.04.23-.12.76-.28,1.51-.45,2.26-.03.14-.06.27-.09.41-.2.81-.42,1.6-.67,2.39-.02.05-.04.11-.05.16-.26.8-.55,1.6-.87,2.37,0,.01-.01.03-.02.05-3.71,9.03-11.08,16.18-20.25,19.62,0,0,.02.02.03.03,4.5,5.15,11.2,8.19,19.49,8.71h.11c6.43-1.58,9.29-6.11,11.8-12.91l.68-1.87c1.63-4.48,3.3-9.09,6.17-12.98,4.96-6.73,11.15-9.8,17.25-11.16h0c.04-.92.07-1.85.07-2.78v-26.18s0,0,0,0c-2.35-1.71-4.23-3.85-5.6-6.5-4.48-8.66-8.79-17.79-12.82-27.14-.3-.7-.54-1.38-.73-2.06l-.46-1.61h6.25l.41,1.09c4.05,9.42,8.3,18.42,12.72,26.95.07.14.17.27.24.4,0,0,0,0,0,0V5.03c0-2.78-2.25-5.03-5.03-5.03Z"/><path class="cls-2" d="M468.46,261.61s0,0,0,0h-36.9s0,0,0,0c-.08.32-.17.63-.25.97-.44,1.83-.77,3.81-1.07,5.56-.49,2.92-1,5.91-1.96,8.82l-.21.63c-1.83,5.6-3.89,11.86-8.16,16.74h67.34s.01,0,.02,0c1.04,0,2.07-.03,3.1-.08.32-.01.65-.04.97-.05.74-.04,1.47-.1,2.21-.17.34-.03.67-.06,1.01-.09.97-.1,1.94-.22,2.9-.37.3-.04.59-.1.88-.15.68-.11,1.37-.23,2.04-.37.44-.09.87-.18,1.31-.27.54-.12,1.09-.24,1.63-.38.44-.11.88-.21,1.32-.33.85-.22,1.69-.46,2.53-.72h0c-6.09-.67-12.03-2.23-17.75-4.69-11.21-4.83-16.6-13.51-20.96-25.05Z"/><path class="cls-2" d="M542.73,243.9c-2.35,3.2-3.88,7.39-5.35,11.45l-.7,1.92c-2.6,7.03-6.57,14.51-16.37,16.76l-.41.07h-.27c-.12,0-.24,0-.36-.01-.12.01-.24.02-.35.02-11.24-.71-20.06-5.31-25.55-13.03,0,0-.01-.01-.02-.02-1.99.35-4.02.56-6.11.56h-12.32s0,0,0,0c3.67,9.04,8.26,15.81,16.87,19.52,7.06,3.04,14.51,4.58,22.15,4.58,2.4,0,4.83-.19,7.29-.5h0s0,0,0,0c2.77-1.6,5.42-3.4,7.92-5.36.02-.01.03-.02.04-.04,2.5-1.96,4.85-4.09,7.04-6.38.02-.02.04-.04.06-.06.86-.9,1.7-1.82,2.51-2.77.01-.01.03-.03.04-.04,2.05-2.39,3.93-4.93,5.64-7.59.04-.06.07-.11.11-.17,1.69-2.65,3.2-5.43,4.51-8.31.03-.06.06-.13.09-.19,1.31-2.9,2.42-5.9,3.32-9,.01-.04.02-.08.03-.12.35-1.2.66-2.42.94-3.65.01-.05.02-.1.03-.14.43-1.92.78-3.86,1.05-5.84,0,0,0,0,0,0h0c-4.32,1.29-8.45,3.75-11.84,8.34Z"/><path class="cls-2" d="M162.72,172.38c-.59-13.9-8.48-36.49-32.68-51.29-4.83-2.95-10.3-5.6-16.5-7.8-5.78-2.05-12.17-3.73-19.26-4.91-15.75-2.63-45.83-8.12-51.83-13.94-7.16-6.95-9.03-14.37-9.51-17.92-.12-.89-.16-1.55-.17-1.88v-6.68c0-19.46,15.77-35.23,35.23-35.23h39.68c2.78,0,5.03,2.25,5.03,5.03v22.99c0,2.78,2.25,5.03,5.03,5.03h22.65c2.78,0,5.03-2.25,5.03-5.03V5.03c0-2.78-2.25-5.03-5.03-5.03h-72.4C30.48,0,.06,30.42.06,67.95v6.97H0c0,.51,0,1.05.02,1.59,0,.28.02.56.04.85.68,13.96,8.82,36.04,32.72,50.59,2.98,1.82,6.2,3.52,9.69,5.07,7.45,3.31,23.4,5.95,33.39,7.62,10.81,1.8,31.83,4.96,37.7,8.64,12.8,8.02,15.66,18.56,16.31,23.1.13.9.17,1.55.19,1.92v29.88c4.13-6.68,8.47-13.82,13.3-21.9,2.83-4.72,3.44-10.14,1.83-16.09-.15-.56-.33-1.1-.51-1.62l-.6-1.68h6.4s.47,1.53.53,1.73c2.06,7.58,1.22,14.57-2.48,20.76-6.93,11.58-12.82,21.2-18.47,30.19v10.81s0,.02,0,.02c0,1.58-.14,3.13-.34,4.65,0,0,.02.01.03.02,1.32.89,3.01,1.65,5.08,2.26,11.76,3.45,18.7,9.04,22.49,18.13.1.25.24.5.37.75,0,0,0,0,0,0,0-.01,0-.02.01-.03.81-1.98,1.54-4,2.16-6.07,0-.01,0-.03.01-.04.31-1.02.6-2.05.86-3.09.02-.07.03-.14.05-.21.24-.98.47-1.98.67-2.98.04-.18.06-.35.09-.53.17-.9.34-1.81.48-2.72.05-.34.09-.69.13-1.03.1-.76.21-1.52.28-2.28.06-.6.09-1.22.14-1.83.04-.52.09-1.03.12-1.55.06-1.14.09-2.29.09-3.45v-54h-.04Z"/><path class="cls-2" d="M32.72,210.72v-38.9c-.09,0-.19-.03-.28-.03-.8-.03-1.54-.37-2.09-.95-.55-.59-.84-1.36-.81-2.17.05-1.4,1.05-2.48,2.35-2.78h0,0c-.05-.09-.12-.16-.18-.24-.11-.15-.23-.29-.35-.43-.07-.08-.14-.16-.22-.23-.18-.18-.38-.34-.58-.48-.07-.05-.15-.09-.22-.14-.19-.12-.39-.23-.6-.32-.06-.03-.11-.06-.17-.08-.26-.11-.53-.19-.81-.25-.07-.02-.14-.03-.21-.04-.29-.05-.6-.09-.91-.09H5.06c-2.34,0-4.28,1.59-4.86,3.74-.11.42-.19.86-.19,1.31h0v42.56l.41.14c.3.11.58.25.82.44.61.45,1.04,1.17,1.16,1.95.12.8-.07,1.6-.55,2.24l-1.85,2.55v8.8h0c0,1.01.03,2.01.08,3.01.01.31.03.63.05.94.04.74.1,1.48.17,2.21.05.51.1,1.02.16,1.53.07.6.14,1.21.23,1.81.08.56.17,1.13.26,1.69.05.27.09.53.14.8.38,2.06.84,4.1,1.4,6.09,0,0,0,0,0,0h0c3.6-4.84,7.17-9.89,10.65-15.07,5.67-8.43,12.17-14.89,19.58-19.61ZM21.36,173.95c.56-.98,1.14-1.88,1.71-2.68.58-.79,1.49-1.25,2.45-1.25.64,0,1.26.2,1.77.58,1.34.99,1.64,2.87.67,4.21-.44.61-.9,1.33-1.37,2.15-.53.93-1.53,1.52-2.61,1.52-.52,0-1.03-.14-1.49-.39-.71-.41-1.21-1.06-1.42-1.83-.21-.78-.11-1.59.3-2.29ZM16.14,184.26c.44-.81.87-1.63,1.3-2.46.52-1.01,1.55-1.64,2.68-1.64.47,0,.95.11,1.37.33,1.48.77,2.06,2.59,1.31,4.06-.45.88-.91,1.75-1.38,2.61-.53.97-1.55,1.57-2.65,1.57-.51,0-1.02-.13-1.46-.38-1.44-.79-1.97-2.62-1.18-4.08ZM4.53,210.27c-.65,0-1.27-.21-1.79-.59-1.33-.98-1.61-2.87-.63-4.2,3.76-5.1,6.85-9.43,9.74-13.97.55-.87,1.5-1.39,2.54-1.39.58,0,1.14.17,1.63.48.67.43,1.14,1.1,1.31,1.89.17.79.03,1.59-.41,2.27-2.97,4.66-6.13,9.09-9.97,14.29-.56.77-1.47,1.23-2.43,1.23Z"/><path class="cls-2" d="M63.09,272.89c.81,2.14,1.45,4.32,2.06,6.42.7,2.39,1.4,4.77,2.27,6.94,1.02,2.54,2.56,4.2,4.33,4.67.38.1.77.15,1.16.15,1.41,0,2.98-.66,4.56-1.9,3.47-2.74,6.14-5.88,7.54-8.82,2.44-5.17,4.48-11.22,6.24-18.51.02-.08.04-.15.06-.23h-24.31c-.75,0-1.49-.03-2.23-.08-.07,0-.15-.01-.22-.02-2.26-.17-4.46-.57-6.58-1.15,0,.01.01.02.02.04,1.69,3.32,3,6.81,4.26,10.21l.85,2.27Z"/><path class="cls-2" d="M37.04,252.04c1.64-.8,3.11-1.39,4.47-1.78.01,0,.03,0,.04-.01-3.75-4.17-6.51-9.24-7.88-14.87-.01-.05-.03-.11-.04-.17-.11-.44-.2-.89-.29-1.34-.03-.13-.05-.27-.07-.4-.07-.39-.14-.77-.19-1.16-.03-.21-.05-.43-.08-.64-.04-.32-.08-.65-.12-.97-.03-.31-.05-.62-.07-.93-.02-.24-.04-.48-.05-.73-.03-.56-.04-1.13-.04-1.7v-9.31c-5.4,4.04-10.25,9.23-14.58,15.67-4.34,6.46-8.8,12.69-13.3,18.61.34.84.69,1.67,1.06,2.49.01.03.02.05.04.08,2.24,4.96,5.07,9.61,8.4,13.84.02.03.04.06.07.08.55.7,1.11,1.38,1.69,2.05,5.76-7.32,11.95-14.38,20.97-18.8Z"/><path class="cls-2" d="M59.4,281.11c-.61-2.08-1.22-4.16-1.95-6.11l-.86-2.29c-1.53-4.14-3.12-8.42-5.34-12.04-2.55-4.14-4.21-4.99-5.92-4.99-1.39,0-3.19.56-5.65,1.76-8.18,4-14,10.88-19.45,17.84,11.8,11.51,27.84,18.69,45.55,19.01-1.64-1.45-3-3.42-3.96-5.8-.99-2.45-1.72-4.96-2.43-7.39Z"/><path class="cls-2" d="M133.11,239.11c-1.78-.52-3.36-1.16-4.78-1.89,0,0,0,0,0,0-1.29,3.99-3.27,7.68-5.8,10.91-.05.07-.11.14-.16.21-.95,1.2-1.99,2.33-3.09,3.39-.12.12-.25.24-.38.36-.54.51-1.1,1.01-1.67,1.48h0c2.9.87,5.72,1.75,8.45,2.68,9.2,3.12,15.24,8.92,18.13,17.2,0,0,0,0,0,0,0,0,0,0,0,0,1.52-1.58,2.95-3.23,4.31-4.95.13-.16.26-.33.39-.5.39-.5.78-1.01,1.15-1.52.18-.25.36-.51.54-.76.53-.74,1.04-1.49,1.54-2.25.28-.42.55-.85.82-1.28.23-.37.46-.74.68-1.12.31-.53.62-1.06.92-1.6.16-.29.33-.58.49-.87,0,0,0,0,0,0h0c-1.09-1.47-2.16-3.01-2.91-4.81-3.03-7.26-8.77-11.78-18.63-14.67Z"/><path class="cls-2" d="M123.74,261.94c-4.17-1.42-8.56-2.75-13.2-4.04-.01,0-.03,0-.04-.01-3.95,1.97-8.31,3.22-12.93,3.58,0,0,0,.01,0,.02-.15.54-.31,1.12-.46,1.76-1.86,7.69-4.04,14.12-6.65,19.66-2.29,4.84-6.29,8.64-9.25,10.98-.21.16-.43.28-.64.43h14.25c1.12,0,2.22-.03,3.33-.08.38-.02.75-.05,1.13-.08.72-.05,1.43-.09,2.15-.16.46-.04.91-.1,1.36-.16.62-.07,1.24-.15,1.86-.24.49-.07.99-.15,1.48-.24.56-.09,1.12-.19,1.68-.3.52-.1,1.04-.21,1.56-.32.51-.11,1.02-.23,1.53-.35.55-.13,1.09-.27,1.64-.42.45-.12.9-.25,1.35-.38.58-.17,1.16-.34,1.74-.53.37-.12.74-.25,1.11-.38.64-.22,1.28-.43,1.91-.67.21-.08.41-.17.62-.25,4.41-1.7,8.6-3.85,12.51-6.39.06-.04.11-.07.17-.11.76-.5,1.52-1.02,2.26-1.54.07-.05.13-.09.2-.14.74-.53,1.47-1.08,2.19-1.64.05-.04.1-.08.15-.12.74-.58,1.47-1.18,2.18-1.79,0,0,0,0,0,0h0c-1.89-7.91-6.98-13.33-15.17-16.11Z"/><path class="cls-2" d="M745.29,65.49h-22.65c-2.78,0-5.03,2.25-5.03,5.03v92.37h18.91l-3.44,2.3c-2.6,1.74-5.9,2.62-9.8,2.62-.7,0-1.42-.03-2.16-.08-.69-.06-1.39-.07-2.1-.07-.47,0-.95.01-1.42.02v73.59c.25.5.5,1.02.75,1.51,6.89,13.53,6.55,27.49-.96,40.35-2.52,4.31-5.47,8.04-8.77,11.2h12.78c3.69-5.82,7.37-11.6,11-17.29l4.82-7.57c4.48-7.04,4.32-13.13-.55-21.04-6.17-10.03-9.51-20.98-9.92-32.56-.21-6.17.5-14.78,9.1-18.32,2.05-.85,4.19-1.28,6.35-1.28,2.66,0,5.4.68,8.12,1.96,0,0,0,0,0,0v-127.71c0-2.78-2.25-5.03-5.03-5.03Z"/><path class="cls-2" d="M628.46,285.79c2.11,0,4.31-.26,6.55-.76,15.53-3.51,28.1-10.55,37.36-20.93.71-.79,1.22-1.62,1.56-2.48h-18.12c-1.44,0-2.85-.11-4.24-.28,0,0-.01,0-.02.01-5.59,5.29-12.24,8.28-18.96,8.36h-.34c-8.46,0-16.4-4.54-22.97-13.13-6.47-8.47-13.12-14.36-20.3-17.94,1.42,7.78,4.16,15.09,7.98,21.7.81,1.05,1.61,2.11,2.42,3.15l.69.88c2.31,2.98,4.67,6.06,6.92,9.24,0,0,.01.02.02.03.5.51,1,1.02,1.51,1.51.01.01.03.03.04.04.91.88,1.84,1.73,2.8,2.56.17.15.34.29.5.44.44.37.88.74,1.33,1.1.33.27.67.53,1,.79.56.44,1.13.86,1.7,1.28.45.33.91.66,1.37.98.32.22.64.44.97.66.7.47,1.4.92,2.12,1.36.02.01.03.02.05.03,2.53.9,5.2,1.39,8.03,1.39Z"/><path class="cls-2" d="M712.19,280.09c3.98-6.82,5.6-14.01,4.85-21.25,0,0,0,0,0,0-.29.57-.69,1.08-1.17,1.5-.07.06-.14.12-.22.18-.13.1-.26.2-.39.29-.21.13-.43.25-.66.36-.09.04-.18.07-.26.1-.2.07-.4.14-.6.19-.09.02-.18.04-.27.06-.29.05-.59.09-.9.09h-8.39c.16,3.36-.48,6.68-1.97,10.02-3.82,8.55-10.78,12.72-17.09,15.67-2.61,1.22-5.3,2.42-7.9,3.58-2.34,1.04-4.94,2.21-7.58,3.45h29.41l.2-.13c5.03-3.27,9.38-8.02,12.94-14.1Z"/><path class="cls-2" d="M614.08,252.92c5.38,7.05,11.69,10.77,18.22,10.77,4.11-.05,8.14-1.5,11.84-4.07.01,0,.02-.01.03-.02-8.58-3.01-15.64-9.23-19.74-17.22,0,0,0,0,0-.01-.2-.39-.4-.79-.58-1.19,0-.02-.02-.03-.02-.05-.5-1.09-.95-2.21-1.34-3.36-.06-.18-.13-.37-.19-.55-.09-.27-.17-.55-.26-.83-.07-.24-.14-.47-.2-.71-.07-.25-.14-.5-.2-.76-.08-.31-.15-.63-.22-.95-.04-.19-.09-.38-.13-.57-.1-.5-.19-.99-.27-1.5-.03-.19-.05-.38-.08-.57-.05-.35-.09-.7-.13-1.05-.02-.2-.04-.41-.06-.61-.03-.36-.06-.72-.08-1.09-.01-.18-.02-.37-.03-.55-.02-.52-.04-1.04-.04-1.57,0-.02,0-.05,0-.07v-35.09s0,0,0,0c-12.55-5.02-20.73-14.22-23.62-26.86l-.35-1.54h6.17l.24.95c2.39,9.47,8.44,16.61,17.56,20.93,0,0,0,0,0,0v-15.15s0,0,0,0c-.74-.73-1.44-1.54-2.11-2.43-.57-.76-1.12-1.55-1.65-2.34l-1.3-1.96h5.06V5.03c0-2.78-2.25-5.03-5.03-5.03h-22.65c-2.78,0-5.03,2.25-5.03,5.03v221.35c0,.06,0,.11,0,.17,0,.87.03,1.74.07,2.6.04.82.09,1.64.15,2.45,9.4,3.71,17.87,10.69,25.99,21.31Z"/><path class="cls-2" d="M674.69,285.41c2.7-1.2,5.32-2.37,7.88-3.57,5.3-2.48,11.13-5.93,14.14-12.67,1.11-2.48,1.55-4.98,1.37-7.56h-17.84c-.48,2.34-1.6,4.51-3.37,6.5-10.12,11.33-23.75,19-40.52,22.79-.41.09-.81.13-1.22.21.6.19,1.2.36,1.8.54.34.1.69.2,1.03.29.57.16,1.14.3,1.72.44.41.1.83.19,1.24.29.54.12,1.07.24,1.61.35.89.18,1.79.34,2.69.48.38.06.77.1,1.15.16.65.09,1.31.18,1.96.25.4.04.8.08,1.2.12.69.06,1.39.12,2.09.16.34.02.69.04,1.03.06,1.04.05,2.09.08,3.15.08h.66l.3-.17c5.58-3.2,11.42-5.86,17.92-8.75Z"/><path class="cls-2" d="M738.14,203.12c-4.76,1.96-5.59,6.43-5.37,12.54.37,10.53,3.41,20.49,9.03,29.61,6.11,9.92,6.27,18.39.5,27.44,0,0-9.59,15.05-13.76,21.62h12.97c2.69-3.28,5.64-6.29,8.81-8.98,0,0,0,0,0,0v-80.23s0,0,0,0c-2.28-1.5-5.11-2.81-8.13-2.81-1.38,0-2.74.27-4.05.81Z"/><path class="cls-2" d="M914.54,4.93c-.04-2.04-1.29-3.78-3.06-4.54-.6-.25-1.26-.4-1.96-.4h-186.9c-.35,0-.69.04-1.01.1-2.29.47-4.02,2.5-4.02,4.93v22.65c0,2.78,2.25,5.03,5.03,5.03h55.36c2.78,0,5.03,2.25,5.03,5.03h.67v141.38c1.74,4.04,4.38,8.09,8.36,11.68,4.5,4.07,9.95,6.13,16.19,6.13,1.71,0,3.51-.16,5.34-.46.94-.16,1.88-.32,2.83-.49h0v-16.84h0c-.94.07-1.89.15-2.76.15-8.14,0-13.62-2.83-16.28-8.42-.87-1.83-1.6-3.93-2.23-6.42l-.39-1.56h6.2l.25.93c.47,1.73,1,3.19,1.6,4.47,1.6,3.35,5.14,4.98,10.84,4.98.86,0,1.81-.07,2.76-.15h0V35.28c.76-1.33,2.09-2.3,3.67-2.52.23-.03.46-.05.69-.05h88.76c2.78,0,5.03-2.25,5.03-5.03V5.03h0s0-.07-.01-.1Z"/><path class="cls-2" d="M808.22,202.96c-7.76,0-14.56-2.59-20.21-7.68-1.59-1.44-3-3.01-4.32-4.65v15.84c7.68,6.33,17.46,7.46,25.5,7.64.97.02,1.95.03,2.92.03h3.69c.2,0,.4,0,.61,0h0v-12.03h0c-.71.12-1.42.25-1.84.32-2.17.36-4.3.54-6.34.54Z"/><path class="cls-2" d="M812.1,220.16c-1.02,0-2.05,0-3.06-.03-7.84-.18-17.17-1.2-25.36-6.25v12.49c0,.31.02.62.02.94,5.54,2.41,11.79,3.68,18.8,3.68h2.03c4.37-.01,8.44.36,12.32,1.05.01,0,.03,0,.04,0-.23-1.39-.39-2.79-.46-4.22,0-.14,0-.29-.01-.43-.01-.34-.02-.67-.02-1.02v-6.22h0c-.19,0-.38,0-.57,0h-3.72Z"/><path class="cls-2" d="M881.39,272.54h0v-5.89c0-.27-.03-.53-.08-.78-.03-.18-.07-.36-.12-.54,0,0,0,0,0,0h0s-.57-.44-.57-.44c-1.26-.98-2.54-2.05-3.87-3.23,0,0,0,0,0,0-.13-.01-.26-.04-.39-.04h-10.69,0c2.57,1.91,5.11,3.84,7.54,5.86,2.41,1.99,5.17,3.68,8.18,5.07Z"/><path class="cls-2" d="M802.61,237.02c-6.76,0-12.92-1-18.49-2.98.93,8.28,3.35,16.11,6.99,23.22,2.58-.57,5.14-.89,7.63-.89,7.72,0,14.94,2.75,21.47,8.17,4.92,4.08,9.52,6.11,15.39,6.77,6.3.71,12.34,2.83,18.19,4.89,2.72.95,5.3,1.86,7.86,2.62,2.29.69,4.56,1.52,6.74,2.33,4.07,1.5,8.68,3.19,13.01,3.52h0v-5.53h0s-.47-.19-.47-.19c-4.26-1.73-8.15-4.03-11.55-6.85-4.46-3.68-9.23-7.11-13.85-10.43-.03-.02-.06-.04-.09-.07h-3.8c-.85,0-1.69-.04-2.52-.1-.18-.01-.37-.03-.55-.04-.82-.07-1.64-.16-2.45-.29-.07-.01-.15-.03-.22-.04-.78-.13-1.54-.28-2.3-.46-.12-.03-.24-.05-.36-.08-.82-.2-1.62-.43-2.42-.68-.05-.02-.1-.04-.16-.05-10.21-3.35-18.36-11.26-22.06-21.32-.02,0-.03,0-.05,0-4.32-1.01-8.94-1.52-13.98-1.52h-1.96Z"/><path class="cls-2" d="M859.91,284.6c-2.7-.81-5.39-1.75-8-2.66-5.65-1.98-11.37-3.99-17-4.63-7.12-.81-12.67-3.24-18.56-8.13-5.41-4.5-11.35-6.78-17.63-6.78-1.45,0-2.95.14-4.46.38,2.97,4.67,6.49,8.95,10.48,12.75.1.1.2.19.3.29,1.39,1.31,2.84,2.56,4.34,3.76.21.16.41.33.62.49.81.63,1.63,1.23,2.46,1.83.21.15.42.31.64.46.44.3.89.6,1.33.89.33.22.67.43,1,.64.61.38,1.22.76,1.84,1.12.46.27.92.54,1.39.8.4.22.8.44,1.2.65.51.27,1.03.53,1.54.79.48.24.96.47,1.44.7.58.27,1.16.54,1.75.79.35.15.7.3,1.05.45.79.33,1.6.65,2.41.95.26.09.52.18.77.27.68.24,1.36.47,2.04.69.29.09.59.19.88.28.87.27,1.75.52,2.64.75.24.06.49.12.73.18.77.19,1.54.37,2.32.54.23.05.46.1.69.15.94.19,1.89.36,2.84.51.24.04.48.07.72.11.88.13,1.76.24,2.65.34.14.01.28.03.42.05,1,.1,2,.17,3.01.23.24.01.48.02.72.04,1.03.05,2.06.08,3.1.08,0,0,0,0,0,0h24.73s0,0,0,0c.32,0,.63-.04.93-.09.11-.02.21-.05.32-.08.19-.05.37-.1.54-.17.13-.05.25-.11.38-.17.13-.06.26-.13.39-.21.14-.09.28-.17.41-.27.07-.05.14-.11.21-.17.76-.63,1.34-1.48,1.63-2.46,0,0,0,0,0,0h0c-5.19-.33-10.3-2.21-14.81-3.88-2.17-.8-4.35-1.6-6.44-2.23Z"/><path class="cls-2" d="M354.22,0h-90.43c-5.77,0-11.38.73-16.73,2.08-.08.02-.17.04-.25.06-29.31,7.54-50.97,34.15-50.97,65.81v108.31c.96.54,2.04.92,3.25,1.02,4.46-2.12,7.09-4.69,7.83-7.64.38-1.51.26-3.23-.34-5.11l-.53-1.64h6.33l.24.95c.66,2.59.71,5.03.15,7.27-1.24,4.96-5.2,8.98-11.78,11.94-.38.17-.81.27-1.24.27-.12,0-.24,0-.36-.02-.12.01-.24.02-.36.02-1.12-.07-2.18-.28-3.19-.56v43.62s0,.02,0,.02c0,1.03.03,2.06.08,3.08.01.29.03.57.05.86.05.86.11,1.71.2,2.56.02.18.03.37.05.55.1.99.23,1.97.37,2.94.04.29.09.58.14.87.12.74.25,1.48.4,2.22.06.28.11.57.17.85.19.92.4,1.84.63,2.75.08.31.16.61.24.91.18.65.36,1.3.55,1.95.11.35.21.71.32,1.06.27.84.55,1.67.84,2.49.12.33.25.66.38.99.22.58.45,1.16.68,1.73.16.4.33.79.5,1.18.24.54.48,1.08.73,1.62.25.54.51,1.08.78,1.62.27.53.54,1.07.82,1.59.22.41.44.82.67,1.22.24.44.49.87.75,1.3.23.38.45.77.68,1.15,6.15.75,12.66,2.24,19.71,4.53,11.06,3.58,21.15,5.39,29.98,5.39,14.83,0,24.03-5.02,30.38-9.4.41-.28.83-.54,1.26-.8h-23.4c-.81,0-1.61-.04-2.41-.09-.2-.01-.39-.03-.59-.04-1.59-.13-3.15-.37-4.67-.71-.18-.04-.36-.08-.54-.12-1.53-.36-3.01-.83-4.45-1.38-.15-.06-.31-.12-.46-.18-1.44-.58-2.84-1.25-4.18-2.01-.13-.07-.26-.15-.39-.23-.67-.39-1.32-.79-1.96-1.22,0,0,0,0,0,0-.52.91-1.47,1.55-2.58,1.55h-.03c-1.54-.03-3.09-.15-4.63-.36-4.05-.54-8.29-1.3-12.98-2.32-1.62-.36-2.65-1.96-2.3-3.58.29-1.37,1.53-2.37,2.94-2.37l.39.02.25.04c4.51.98,8.59,1.71,12.49,2.23.27.04.54.03.81.06,0,0,.01,0,.02,0-5.17-5.33-8.65-12.28-9.64-20.02,0,0-.02,0-.02,0-.89-.27-1.78-.57-2.65-.92-10.26-4.13-12.53-9.06-8.66-18.82,2.28-5.74,5.41-13.23,9.4-20.22.59-1.02,1.11-2.04,1.61-3.04,0,0,0,0,0,0v-119.93c0-19.46,15.77-35.23,35.23-35.23h57.71c2.78,0,5.03,2.25,5.03,5.03v23.2c0,2.78,2.25,5.03,5.03,5.03h22.65c2.78,0,5.03-2.25,5.03-5.03V5.03c0-2.78-2.25-5.03-5.03-5.03ZM207.99,247.44c-.34,1.31-1.54,2.23-2.9,2.23h-.33l-.41-.09-2.82-.75c-1.6-.43-2.56-2.08-2.14-3.68.35-1.32,1.55-2.25,2.91-2.25l.44.03.29.06,2.82.75c.78.21,1.43.71,1.83,1.4.4.7.51,1.51.3,2.29ZM216.92,246.65c1.61.41,2.59,2.04,2.19,3.65-.34,1.35-1.54,2.29-2.92,2.29h-.3l-.38-.08-2.84-.72c-1.62-.42-2.6-2.07-2.18-3.67.34-1.33,1.54-2.26,2.92-2.26h.14l.33.03,3.04.77Z"/><path class="cls-2" d="M228.45,224.36s.07.02.1.04h0v-23.54s0,0,0,0c-2.15,4.47-3.96,8.85-5.41,12.51-2.63,6.64-1.94,8.08,5.31,11Z"/><path class="cls-2" d="M322.99,273.14c1.73,3.81,2.38,7.94,2.05,12.22h0s0,0,0,0c.88-.5,1.75-1.03,2.6-1.57.02,0,.03-.02.05-.03.84-.53,1.67-1.08,2.48-1.65.04-.03.08-.06.13-.09.79-.55,1.57-1.12,2.34-1.71.06-.04.11-.09.17-.13.76-.59,1.51-1.19,2.25-1.81,0,0,0,0,0,0,0,0,0,0,0,0,.03-.51.08-1.01.1-1.54.06-1.62,1.39-2.89,3.01-2.89.5.02.94.15,1.34.35,1.12-1.13,2.2-2.31,3.24-3.52.24-.28.49-.55.72-.83.4-.48.78-.97,1.17-1.46.24-.31.49-.61.73-.92.38-.5.75-1.01,1.11-1.52.22-.31.45-.62.67-.94.36-.53.72-1.06,1.07-1.59.2-.31.4-.61.59-.92.35-.56.7-1.12,1.03-1.69.17-.29.33-.58.5-.86.34-.6.68-1.21,1.01-1.82.13-.24.25-.48.37-.72.35-.67.69-1.35,1.02-2.04,0,0,0,0,0-.01,0,0,0,0,0,0-.7-5.11-1.67-10.08-2.69-14.83-2.71-12.63-10.24-23.64-23.52-34.27v14.67l.1.1c1.1,1.21,1.03,3.04-.1,4.17v1.12s0,.01,0,.02c0,.8-.04,1.59-.09,2.37-.01.2-.03.4-.05.61-.06.76-.15,1.52-.26,2.27,0,.02,0,.05,0,.07-.12.78-.27,1.54-.44,2.3-.04.18-.08.36-.12.54-.18.74-.37,1.47-.59,2.18,0,.02,0,.03-.01.05-.23.75-.49,1.49-.77,2.21-.06.14-.11.29-.17.43-.58,1.46-1.26,2.88-2.03,4.23-.05.1-.11.19-.17.29-.8,1.39-1.69,2.72-2.67,3.98-.04.05-.07.09-.11.14-1.02,1.3-2.12,2.52-3.3,3.66,0,0,0,0-.01.01-3.02,2.91-6.56,5.28-10.47,6.97,0,0,0,0,.01,0,.26.06.53.09.78.17,7.67,2.23,13.83,7.42,16.93,14.24ZM340.72,250.93c.06,1.17.08,2.48.08,3.97l-.02,3.06c0,2.6.12,5.37.22,7.81l.1,2.41c.07,1.66-1.23,3.06-2.89,3.13h-.05c-1.69,0-3.02-1.25-3.08-2.9l-.1-2.36c-.11-2.65-.23-5.39-.23-8.1l.02-3.05c0-1.39-.02-2.6-.07-3.7-.08-1.65,1.2-3.07,2.86-3.15h0c1.77,0,3.09,1.26,3.16,2.88ZM334.84,236.86s.62-.04.62-.04c1.31,0,2.4.74,2.86,1.88.4.98.75,2,1.04,3.04.22.76.12,1.58-.27,2.28-.4.71-1.04,1.21-1.81,1.43l-.14.04-.33.06-.32.02h-.03c-1.34,0-2.54-.9-2.9-2.19-.23-.83-.51-1.64-.82-2.4-.3-.73-.3-1.55.01-2.3s.89-1.32,1.64-1.62l.44-.18ZM327.89,227.54c.52-.33,1.08-.5,1.66-.5,1.02,0,1.97.51,2.52,1.37l1.56,2.38c.91,1.37.55,3.24-.83,4.17-.5.34-1.08.51-1.68.51-1.02,0-1.96-.51-2.52-1.36l-1.58-2.41c-.9-1.39-.51-3.25.86-4.16Z"/><path class="cls-2" d="M337.31,188.57c-4.26-3.05-7.76-6.43-10.78-10.47v20.63c16.76,12.4,26.14,25.35,29.41,40.59.33,1.55.66,3.13.97,4.72,0,0,0,0,0,0,0,0,0,0,0,0,.15-.57.29-1.15.43-1.73.08-.33.15-.66.23-1,.18-.78.34-1.57.49-2.36.1-.54.2-1.08.29-1.62.07-.44.14-.89.2-1.33.1-.67.18-1.34.26-2.01.03-.28.07-.56.1-.85.09-.95.16-1.9.22-2.86.02-.27.03-.55.04-.82.05-1.02.08-2.05.08-3.08v-10.43s0,0,0,0c-4.92-11.27-12.25-20.44-21.94-27.37Z"/><path class="cls-2" d="M326.8,167.07c3.63,7.14,7.95,12.26,14.02,16.6,7.43,5.31,13.58,11.8,18.43,19.42,0,0,0,0,0,0v-34.48c0-2.78-2.25-5.03-5.03-5.03h-22.65c-.32,0-.62.04-.92.09-.11.02-.21.05-.31.08-.18.05-.37.1-.54.17-.13.05-.25.1-.37.16-.13.06-.26.13-.38.21-.14.08-.28.16-.41.26-.05.04-.1.09-.16.13-.77.61-1.35,1.44-1.67,2.39Z"/><path class="cls-2" d="M317.5,275.62c-2.36-5.22-7.14-9.2-13.12-10.94-1.54-.44-3.12-.67-4.69-.67-3.57,0-7.14,1.17-10.35,3.37-10.13,6.97-21.68,10.51-34.34,10.51s-23.69-3.27-31.3-5.74c-4.58-1.48-8.89-2.6-13.01-3.39.46.57.92,1.13,1.4,1.69,0,0,0,.01.01.02,1.42,1.66,2.91,3.25,4.48,4.77.02.02.04.03.05.05,1.56,1.51,3.2,2.94,4.9,4.3.01,0,.02.02.04.03,5.15,4.09,10.92,7.45,17.13,9.92,4.5,1.36,9.23,2.66,14.17,3.92h0s0,0,0,0c.65.1,1.31.19,1.97.28.38.05.75.1,1.13.14.56.07,1.13.12,1.7.17.55.05,1.11.09,1.67.13.44.03.88.06,1.32.08,1.04.05,2.08.08,3.12.08h27.52c1.19,0,2.38-.03,3.55-.09.26-.01.52-.04.78-.06.92-.06,1.84-.12,2.75-.22.23-.02.46-.06.69-.09.94-.11,1.88-.22,2.8-.37.17-.03.33-.06.5-.09.99-.16,1.98-.34,2.95-.55.1-.02.19-.05.29-.07,1.04-.23,2.08-.47,3.11-.74.04-.01.08-.02.12-.04,1.08-.29,2.15-.6,3.2-.94,0,0,0,0,0,0,2.18-.7,4.31-1.51,6.38-2.41,0,0,0,0,0,0h0c1.14-4.65.84-9.09-.95-13.05Z"/></g></svg>